<svg width="32" height="32" viewBox="0 0 32 32" fill="none" xmlns="http://www.w3.org/2000/svg">
<path d="M20 14.6667H29.3333V17.3333H20V14.6667ZM21.3333 20H29.3333V22.6667H21.3333V20ZM18.6666 9.33334H29.3333V12H18.6666V9.33334ZM5.33329 25.3333H18.6666V24C18.6666 20.324 15.676 17.3333 12 17.3333H9.33329C5.65729 17.3333 2.66663 20.324 2.66663 24V25.3333H5.33329ZM10.6666 16C13.3266 16 15.3333 13.9933 15.3333 11.3333C15.3333 8.67334 13.3266 6.66667 10.6666 6.66667C8.00663 6.66667 5.99996 8.67334 5.99996 11.3333C5.99996 13.9933 8.00663 16 10.6666 16Z" fill="black" fill-opacity="0.4"/>
</svg>
