<svg width="24" height="24" viewBox="0 0 24 24" fill="none" xmlns="http://www.w3.org/2000/svg">
<path d="M19 22H5C4.73478 22 4.48043 21.8946 4.29289 21.7071C4.10536 21.5196 4 21.2652 4 21V11.357C4.0154 11.1119 4.11956 10.8808 4.293 10.707L11.293 3.707C11.3859 3.61402 11.4962 3.54026 11.6176 3.48994C11.739 3.43961 11.8691 3.41371 12.0005 3.41371C12.1319 3.41371 12.262 3.43961 12.3834 3.48994C12.5048 3.54026 12.6151 3.61402 12.708 3.707L19.708 10.707C19.801 10.7997 19.8746 10.9099 19.9247 11.0313C19.9748 11.1526 20.0004 11.2827 20 11.414V21C20 21.2652 19.8946 21.5196 19.7071 21.7071C19.5196 21.8946 19.2652 22 19 22ZM12 5.828L6 11.828V20H18V11.828L12 5.828V5.828ZM12 17.999C11.7732 17.8005 11.5425 17.6064 11.308 17.417L11.261 17.379C10.104 16.435 8.661 15.26 8.661 13.799C8.66108 13.5594 8.70899 13.3222 8.80194 13.1013C8.89489 12.8805 9.03099 12.6804 9.20228 12.5129C9.37356 12.3453 9.57658 12.2136 9.79942 12.1256C10.0223 12.0375 10.2604 11.9948 10.5 12C10.7829 11.9992 11.0628 12.0583 11.3213 12.1732C11.5798 12.2882 11.8111 12.4564 12 12.667C12.189 12.4565 12.4203 12.2882 12.6788 12.1733C12.9373 12.0584 13.2171 11.9993 13.5 12C13.7393 11.9953 13.9771 12.0385 14.1996 12.1268C14.422 12.2152 14.6246 12.3471 14.7955 12.5147C14.9663 12.6823 15.1021 12.8823 15.1947 13.103C15.2874 13.3237 15.335 13.5606 15.335 13.8C15.335 15.266 13.883 16.449 12.717 17.4L12.66 17.447C12.423 17.641 12.199 17.824 11.999 18.001L12 17.999V17.999Z" fill="black"/>
</svg>
