<svg width="20" height="20" viewBox="0 0 20 20" fill="none" xmlns="http://www.w3.org/2000/svg">
<path d="M6.62771 6.11116C6.62771 5.78152 6.52996 5.45928 6.34683 5.1852C6.1637 4.91111 5.9034 4.69749 5.59887 4.57134C5.29433 4.4452 4.95922 4.41219 4.63593 4.4765C4.31263 4.54081 4.01566 4.69954 3.78258 4.93263C3.5495 5.16572 3.39077 5.4627 3.32646 5.786C3.26215 6.10931 3.29516 6.44442 3.4213 6.74897C3.54744 7.05351 3.76106 7.31381 4.03514 7.49695C4.30921 7.68009 4.63144 7.77784 4.96107 7.77784C5.40309 7.77784 5.82701 7.60224 6.13956 7.28968C6.45212 6.97712 6.62771 6.55319 6.62771 6.11116ZM4.0722 6.11116C4.0722 5.93535 4.12433 5.76349 4.222 5.61731C4.31967 5.47113 4.45849 5.3572 4.62091 5.28992C4.78333 5.22264 4.96206 5.20504 5.13448 5.23934C5.30691 5.27364 5.46529 5.3583 5.5896 5.48261C5.71391 5.60693 5.79857 5.76531 5.83286 5.93774C5.86716 6.11017 5.84956 6.2889 5.78228 6.45132C5.71501 6.61375 5.60108 6.75257 5.4549 6.85025C5.30873 6.94792 5.13687 7.00005 4.96107 7.00005C4.72533 7.00005 4.49924 6.9064 4.33254 6.7397C4.16585 6.573 4.0722 6.34691 4.0722 6.11116Z" fill="black"/>
<path d="M9.65549 11.539L7.43326 9.31675C7.32917 9.21328 7.18837 9.1552 7.0416 9.1552C6.89483 9.1552 6.75402 9.21328 6.64993 9.31675L3.28882 12.7223V14.2946L7.06104 10.5223L8.88882 12.3223L6.80549 14.4057H8.33326L13.0277 9.7112L16.6666 13.3335V11.7668L13.4388 8.53896C13.3347 8.43549 13.1939 8.37741 13.0472 8.37741C12.9004 8.37741 12.7596 8.43549 12.6555 8.53896L9.65549 11.539Z" fill="black"/>
<path d="M17.7777 7.34444V16.6667H2.2222V3.33331H12.5C12.5014 2.95762 12.5538 2.58385 12.6555 2.2222H2.2222C1.92751 2.2222 1.64489 2.33926 1.43652 2.54764C1.22815 2.75601 1.11108 3.03863 1.11108 3.33331V16.6667C1.11108 16.9614 1.22815 17.244 1.43652 17.4524C1.64489 17.6608 1.92751 17.7778 2.2222 17.7778H17.7777C18.0724 17.7778 18.3551 17.6608 18.5634 17.4524C18.7718 17.244 18.8889 16.9614 18.8889 16.6667V6.85555C18.5445 7.07224 18.1701 7.23697 17.7777 7.34444Z" fill="black"/>
<path d="M16.6667 6.1111C18.2008 6.1111 19.4445 4.86744 19.4445 3.33332C19.4445 1.7992 18.2008 0.555542 16.6667 0.555542C15.1326 0.555542 13.8889 1.7992 13.8889 3.33332C13.8889 4.86744 15.1326 6.1111 16.6667 6.1111Z" fill="black"/>
</svg>
