<svg width="20" height="20" viewBox="0 0 20 20" fill="none" xmlns="http://www.w3.org/2000/svg">
<path d="M10.001 7.79999C9.71201 7.79999 9.4258 7.85692 9.15876 7.96753C8.89172 8.07814 8.64909 8.24026 8.44471 8.44465C8.24033 8.64903 8.0782 8.89166 7.96759 9.1587C7.85698 9.42574 7.80005 9.71195 7.80005 10.001C7.80005 10.29 7.85698 10.5762 7.96759 10.8433C8.0782 11.1103 8.24033 11.3529 8.44471 11.5573C8.64909 11.7617 8.89172 11.9238 9.15876 12.0344C9.4258 12.1451 9.71201 12.202 10.001 12.202C10.5848 12.2019 11.1446 11.9698 11.5572 11.557C11.9699 11.1441 12.2017 10.5842 12.2015 10.0005C12.2014 9.41675 11.9694 8.85697 11.5565 8.44429C11.1437 8.03162 10.5838 7.79986 10 7.79999H10.001ZM3.00105 7.79999C2.71201 7.79999 2.4258 7.85692 2.15876 7.96753C1.89173 8.07814 1.64909 8.24026 1.44471 8.44465C1.24033 8.64903 1.0782 8.89166 0.96759 9.1587C0.856979 9.42574 0.800049 9.71195 0.800049 10.001C0.800049 10.29 0.856979 10.5762 0.96759 10.8433C1.0782 11.1103 1.24033 11.3529 1.44471 11.5573C1.64909 11.7617 1.89173 11.9238 2.15876 12.0344C2.4258 12.1451 2.71201 12.202 3.00105 12.202C3.58479 12.2019 4.14457 11.9698 4.55724 11.557C4.96992 11.1441 5.20168 10.5842 5.20155 10.0005C5.20142 9.41675 4.9694 8.85697 4.55654 8.44429C4.14368 8.03162 3.58379 7.79986 3.00005 7.79999H3.00105ZM17.001 7.79999C16.712 7.79999 16.4258 7.85692 16.1588 7.96753C15.8917 8.07814 15.6491 8.24026 15.4447 8.44465C15.2403 8.64903 15.0782 8.89166 14.9676 9.1587C14.857 9.42574 14.8 9.71195 14.8 10.001C14.8 10.29 14.857 10.5762 14.9676 10.8433C15.0782 11.1103 15.2403 11.3529 15.4447 11.5573C15.6491 11.7617 15.8917 11.9238 16.1588 12.0344C16.4258 12.1451 16.712 12.202 17.001 12.202C17.5848 12.2019 18.1446 11.9698 18.5572 11.557C18.9699 11.1441 19.2017 10.5842 19.2015 10.0005C19.2014 9.41675 18.9694 8.85697 18.5565 8.44429C18.1437 8.03162 17.5838 7.79986 17 7.79999H17.001Z" fill="white"/>
</svg>
